<mxfile host="Electron" modified="2025-01-27T07:35:35.978Z" agent="Mozilla/5.0 (Windows NT 10.0; Win64; x64) AppleWebKit/537.36 (KHTML, like Gecko) draw.io/24.0.4 Chrome/120.0.6099.109 Electron/28.1.0 Safari/537.36" etag="F5Q6kHSByU4lebQVHxJB" version="24.0.4" type="device">
  <diagram name="Page-1" id="CGDX1cf6yrZZ1bMCKbE_">
    <mxGraphModel dx="2726" dy="2071" grid="1" gridSize="10" guides="1" tooltips="1" connect="1" arrows="1" fold="1" page="1" pageScale="1" pageWidth="850" pageHeight="1100" math="0" shadow="0">
      <root>
        <mxCell id="0" />
        <mxCell id="1" parent="0" />
        <mxCell id="gJbDm9_iiknffBqwd1vk-35" value="SchoolCalendar" style="swimlane;fontStyle=1;align=center;verticalAlign=top;childLayout=stackLayout;horizontal=1;startSize=25.666668362087673;horizontalStack=0;resizeParent=1;resizeParentMax=0;resizeLast=0;collapsible=0;marginBottom=0;" vertex="1" parent="1">
          <mxGeometry x="1317" y="527" width="573" height="241.66666836208768" as="geometry" />
        </mxCell>
        <mxCell id="gJbDm9_iiknffBqwd1vk-36" value="+ID: int" style="text;strokeColor=none;fillColor=none;align=left;verticalAlign=top;spacingLeft=4;spacingRight=4;overflow=hidden;rotatable=0;points=[[0,0.5],[1,0.5]];portConstraint=eastwest;" vertex="1" parent="gJbDm9_iiknffBqwd1vk-35">
          <mxGeometry y="25.666668362087673" width="573" height="26" as="geometry" />
        </mxCell>
        <mxCell id="gJbDm9_iiknffBqwd1vk-37" value="+Date: Date" style="text;strokeColor=none;fillColor=none;align=left;verticalAlign=top;spacingLeft=4;spacingRight=4;overflow=hidden;rotatable=0;points=[[0,0.5],[1,0.5]];portConstraint=eastwest;" vertex="1" parent="gJbDm9_iiknffBqwd1vk-35">
          <mxGeometry y="51.66666836208768" width="573" height="26" as="geometry" />
        </mxCell>
        <mxCell id="gJbDm9_iiknffBqwd1vk-38" value="+StartTime: Time" style="text;strokeColor=none;fillColor=none;align=left;verticalAlign=top;spacingLeft=4;spacingRight=4;overflow=hidden;rotatable=0;points=[[0,0.5],[1,0.5]];portConstraint=eastwest;" vertex="1" parent="gJbDm9_iiknffBqwd1vk-35">
          <mxGeometry y="77.66666836208768" width="573" height="26" as="geometry" />
        </mxCell>
        <mxCell id="gJbDm9_iiknffBqwd1vk-39" value="+EndTime: Time" style="text;strokeColor=none;fillColor=none;align=left;verticalAlign=top;spacingLeft=4;spacingRight=4;overflow=hidden;rotatable=0;points=[[0,0.5],[1,0.5]];portConstraint=eastwest;" vertex="1" parent="gJbDm9_iiknffBqwd1vk-35">
          <mxGeometry y="103.66666836208768" width="573" height="26" as="geometry" />
        </mxCell>
        <mxCell id="gJbDm9_iiknffBqwd1vk-40" style="line;strokeWidth=1;fillColor=none;align=left;verticalAlign=middle;spacingTop=-1;spacingLeft=3;spacingRight=3;rotatable=0;labelPosition=right;points=[];portConstraint=eastwest;strokeColor=inherit;" vertex="1" parent="gJbDm9_iiknffBqwd1vk-35">
          <mxGeometry y="129.66666836208768" width="573" height="8" as="geometry" />
        </mxCell>
        <mxCell id="gJbDm9_iiknffBqwd1vk-41" value="+DayType: string (будний/выходной/праздничный)" style="text;strokeColor=none;fillColor=none;align=left;verticalAlign=top;spacingLeft=4;spacingRight=4;overflow=hidden;rotatable=0;points=[[0,0.5],[1,0.5]];portConstraint=eastwest;" vertex="1" parent="gJbDm9_iiknffBqwd1vk-35">
          <mxGeometry y="137.66666836208768" width="573" height="26" as="geometry" />
        </mxCell>
        <mxCell id="gJbDm9_iiknffBqwd1vk-42" value="+AddDay(date: Date, startTime: Time, endTime: Time, dayType: string): void" style="text;strokeColor=none;fillColor=none;align=left;verticalAlign=top;spacingLeft=4;spacingRight=4;overflow=hidden;rotatable=0;points=[[0,0.5],[1,0.5]];portConstraint=eastwest;" vertex="1" parent="gJbDm9_iiknffBqwd1vk-35">
          <mxGeometry y="163.66666836208768" width="573" height="26" as="geometry" />
        </mxCell>
        <mxCell id="gJbDm9_iiknffBqwd1vk-43" value="+UpdateDay(id: int, startTime: Time, endTime: Time, dayType: string): void" style="text;strokeColor=none;fillColor=none;align=left;verticalAlign=top;spacingLeft=4;spacingRight=4;overflow=hidden;rotatable=0;points=[[0,0.5],[1,0.5]];portConstraint=eastwest;" vertex="1" parent="gJbDm9_iiknffBqwd1vk-35">
          <mxGeometry y="189.66666836208768" width="573" height="26" as="geometry" />
        </mxCell>
        <mxCell id="gJbDm9_iiknffBqwd1vk-44" value="+RemoveDay(id: int): void" style="text;strokeColor=none;fillColor=none;align=left;verticalAlign=top;spacingLeft=4;spacingRight=4;overflow=hidden;rotatable=0;points=[[0,0.5],[1,0.5]];portConstraint=eastwest;" vertex="1" parent="gJbDm9_iiknffBqwd1vk-35">
          <mxGeometry y="215.66666836208768" width="573" height="26" as="geometry" />
        </mxCell>
        <mxCell id="gJbDm9_iiknffBqwd1vk-45" value="Shift" style="swimlane;fontStyle=1;align=center;verticalAlign=top;childLayout=stackLayout;horizontal=1;startSize=25.666668362087673;horizontalStack=0;resizeParent=1;resizeParentMax=0;resizeLast=0;collapsible=0;marginBottom=0;" vertex="1" parent="1">
          <mxGeometry x="849" y="834" width="375" height="241.66666836208768" as="geometry" />
        </mxCell>
        <mxCell id="gJbDm9_iiknffBqwd1vk-46" value="+ID: int" style="text;strokeColor=none;fillColor=none;align=left;verticalAlign=top;spacingLeft=4;spacingRight=4;overflow=hidden;rotatable=0;points=[[0,0.5],[1,0.5]];portConstraint=eastwest;" vertex="1" parent="gJbDm9_iiknffBqwd1vk-45">
          <mxGeometry y="25.666668362087673" width="375" height="26" as="geometry" />
        </mxCell>
        <mxCell id="gJbDm9_iiknffBqwd1vk-47" value="+StartTime: Time" style="text;strokeColor=none;fillColor=none;align=left;verticalAlign=top;spacingLeft=4;spacingRight=4;overflow=hidden;rotatable=0;points=[[0,0.5],[1,0.5]];portConstraint=eastwest;" vertex="1" parent="gJbDm9_iiknffBqwd1vk-45">
          <mxGeometry y="51.66666836208768" width="375" height="26" as="geometry" />
        </mxCell>
        <mxCell id="gJbDm9_iiknffBqwd1vk-48" value="+EndTime: Time" style="text;strokeColor=none;fillColor=none;align=left;verticalAlign=top;spacingLeft=4;spacingRight=4;overflow=hidden;rotatable=0;points=[[0,0.5],[1,0.5]];portConstraint=eastwest;" vertex="1" parent="gJbDm9_iiknffBqwd1vk-45">
          <mxGeometry y="77.66666836208768" width="375" height="26" as="geometry" />
        </mxCell>
        <mxCell id="gJbDm9_iiknffBqwd1vk-49" style="line;strokeWidth=1;fillColor=none;align=left;verticalAlign=middle;spacingTop=-1;spacingLeft=3;spacingRight=3;rotatable=0;labelPosition=right;points=[];portConstraint=eastwest;strokeColor=inherit;" vertex="1" parent="gJbDm9_iiknffBqwd1vk-45">
          <mxGeometry y="103.66666836208768" width="375" height="8" as="geometry" />
        </mxCell>
        <mxCell id="gJbDm9_iiknffBqwd1vk-50" value="+CalendarDayID: int (FK to SchoolCalendar)" style="text;strokeColor=none;fillColor=none;align=left;verticalAlign=top;spacingLeft=4;spacingRight=4;overflow=hidden;rotatable=0;points=[[0,0.5],[1,0.5]];portConstraint=eastwest;" vertex="1" parent="gJbDm9_iiknffBqwd1vk-45">
          <mxGeometry y="111.66666836208768" width="375" height="26" as="geometry" />
        </mxCell>
        <mxCell id="gJbDm9_iiknffBqwd1vk-51" value="+EmployeeID: int (FK to Instructor/Administrator)" style="text;strokeColor=none;fillColor=none;align=left;verticalAlign=top;spacingLeft=4;spacingRight=4;overflow=hidden;rotatable=0;points=[[0,0.5],[1,0.5]];portConstraint=eastwest;" vertex="1" parent="gJbDm9_iiknffBqwd1vk-45">
          <mxGeometry y="137.66666836208768" width="375" height="26" as="geometry" />
        </mxCell>
        <mxCell id="gJbDm9_iiknffBqwd1vk-52" value="+Status: string (запланирована/активна/закрыта)" style="text;strokeColor=none;fillColor=none;align=left;verticalAlign=top;spacingLeft=4;spacingRight=4;overflow=hidden;rotatable=0;points=[[0,0.5],[1,0.5]];portConstraint=eastwest;" vertex="1" parent="gJbDm9_iiknffBqwd1vk-45">
          <mxGeometry y="163.66666836208768" width="375" height="26" as="geometry" />
        </mxCell>
        <mxCell id="gJbDm9_iiknffBqwd1vk-53" value="+AddActivity(activity: Activity): void" style="text;strokeColor=none;fillColor=none;align=left;verticalAlign=top;spacingLeft=4;spacingRight=4;overflow=hidden;rotatable=0;points=[[0,0.5],[1,0.5]];portConstraint=eastwest;" vertex="1" parent="gJbDm9_iiknffBqwd1vk-45">
          <mxGeometry y="189.66666836208768" width="375" height="26" as="geometry" />
        </mxCell>
        <mxCell id="gJbDm9_iiknffBqwd1vk-54" value="+UpdateStatus(newStatus: string): void" style="text;strokeColor=none;fillColor=none;align=left;verticalAlign=top;spacingLeft=4;spacingRight=4;overflow=hidden;rotatable=0;points=[[0,0.5],[1,0.5]];portConstraint=eastwest;" vertex="1" parent="gJbDm9_iiknffBqwd1vk-45">
          <mxGeometry y="215.66666836208768" width="375" height="26" as="geometry" />
        </mxCell>
        <mxCell id="gJbDm9_iiknffBqwd1vk-55" value="Activity" style="swimlane;fontStyle=1;align=center;verticalAlign=top;childLayout=stackLayout;horizontal=1;startSize=26.04166603088379;horizontalStack=0;resizeParent=1;resizeParentMax=0;resizeLast=0;collapsible=0;marginBottom=0;" vertex="1" parent="1">
          <mxGeometry x="672" y="1142" width="432" height="216.0416660308838" as="geometry" />
        </mxCell>
        <mxCell id="gJbDm9_iiknffBqwd1vk-56" value="+ID: int" style="text;strokeColor=none;fillColor=none;align=left;verticalAlign=top;spacingLeft=4;spacingRight=4;overflow=hidden;rotatable=0;points=[[0,0.5],[1,0.5]];portConstraint=eastwest;" vertex="1" parent="gJbDm9_iiknffBqwd1vk-55">
          <mxGeometry y="26.04166603088379" width="432" height="26" as="geometry" />
        </mxCell>
        <mxCell id="gJbDm9_iiknffBqwd1vk-57" value="+StartTime: Time" style="text;strokeColor=none;fillColor=none;align=left;verticalAlign=top;spacingLeft=4;spacingRight=4;overflow=hidden;rotatable=0;points=[[0,0.5],[1,0.5]];portConstraint=eastwest;" vertex="1" parent="gJbDm9_iiknffBqwd1vk-55">
          <mxGeometry y="52.04166603088379" width="432" height="26" as="geometry" />
        </mxCell>
        <mxCell id="gJbDm9_iiknffBqwd1vk-58" value="+EndTime: Time" style="text;strokeColor=none;fillColor=none;align=left;verticalAlign=top;spacingLeft=4;spacingRight=4;overflow=hidden;rotatable=0;points=[[0,0.5],[1,0.5]];portConstraint=eastwest;" vertex="1" parent="gJbDm9_iiknffBqwd1vk-55">
          <mxGeometry y="78.04166603088379" width="432" height="26" as="geometry" />
        </mxCell>
        <mxCell id="gJbDm9_iiknffBqwd1vk-59" style="line;strokeWidth=1;fillColor=none;align=left;verticalAlign=middle;spacingTop=-1;spacingLeft=3;spacingRight=3;rotatable=0;labelPosition=right;points=[];portConstraint=eastwest;strokeColor=inherit;" vertex="1" parent="gJbDm9_iiknffBqwd1vk-55">
          <mxGeometry y="104.04166603088379" width="432" height="8" as="geometry" />
        </mxCell>
        <mxCell id="gJbDm9_iiknffBqwd1vk-60" value="+ShiftID: int (FK to Shift)" style="text;strokeColor=none;fillColor=none;align=left;verticalAlign=top;spacingLeft=4;spacingRight=4;overflow=hidden;rotatable=0;points=[[0,0.5],[1,0.5]];portConstraint=eastwest;" vertex="1" parent="gJbDm9_iiknffBqwd1vk-55">
          <mxGeometry y="112.04166603088379" width="432" height="26" as="geometry" />
        </mxCell>
        <mxCell id="gJbDm9_iiknffBqwd1vk-61" value="+Type: string (занятие/перерыв)" style="text;strokeColor=none;fillColor=none;align=left;verticalAlign=top;spacingLeft=4;spacingRight=4;overflow=hidden;rotatable=0;points=[[0,0.5],[1,0.5]];portConstraint=eastwest;" vertex="1" parent="gJbDm9_iiknffBqwd1vk-55">
          <mxGeometry y="138.0416660308838" width="432" height="26" as="geometry" />
        </mxCell>
        <mxCell id="gJbDm9_iiknffBqwd1vk-62" value="+Status: string (запланирована/выполняется/завершена)" style="text;strokeColor=none;fillColor=none;align=left;verticalAlign=top;spacingLeft=4;spacingRight=4;overflow=hidden;rotatable=0;points=[[0,0.5],[1,0.5]];portConstraint=eastwest;" vertex="1" parent="gJbDm9_iiknffBqwd1vk-55">
          <mxGeometry y="164.0416660308838" width="432" height="26" as="geometry" />
        </mxCell>
        <mxCell id="gJbDm9_iiknffBqwd1vk-63" value="+UpdateStatus(newStatus: string): void" style="text;strokeColor=none;fillColor=none;align=left;verticalAlign=top;spacingLeft=4;spacingRight=4;overflow=hidden;rotatable=0;points=[[0,0.5],[1,0.5]];portConstraint=eastwest;" vertex="1" parent="gJbDm9_iiknffBqwd1vk-55">
          <mxGeometry y="190.0416660308838" width="432" height="26" as="geometry" />
        </mxCell>
        <mxCell id="gJbDm9_iiknffBqwd1vk-64" value="Instructor" style="swimlane;fontStyle=1;align=center;verticalAlign=top;childLayout=stackLayout;horizontal=1;startSize=27.166666666666668;horizontalStack=0;resizeParent=1;resizeParentMax=0;resizeLast=0;collapsible=0;marginBottom=0;" vertex="1" parent="1">
          <mxGeometry x="20" y="1165" width="602" height="170.16666666666669" as="geometry" />
        </mxCell>
        <mxCell id="gJbDm9_iiknffBqwd1vk-65" value="+ID: int" style="text;strokeColor=none;fillColor=none;align=left;verticalAlign=top;spacingLeft=4;spacingRight=4;overflow=hidden;rotatable=0;points=[[0,0.5],[1,0.5]];portConstraint=eastwest;" vertex="1" parent="gJbDm9_iiknffBqwd1vk-64">
          <mxGeometry y="27.166666666666668" width="602" height="27" as="geometry" />
        </mxCell>
        <mxCell id="gJbDm9_iiknffBqwd1vk-66" value="+Name: string" style="text;strokeColor=none;fillColor=none;align=left;verticalAlign=top;spacingLeft=4;spacingRight=4;overflow=hidden;rotatable=0;points=[[0,0.5],[1,0.5]];portConstraint=eastwest;" vertex="1" parent="gJbDm9_iiknffBqwd1vk-64">
          <mxGeometry y="54.16666666666667" width="602" height="27" as="geometry" />
        </mxCell>
        <mxCell id="gJbDm9_iiknffBqwd1vk-67" value="+Specialization: string" style="text;strokeColor=none;fillColor=none;align=left;verticalAlign=top;spacingLeft=4;spacingRight=4;overflow=hidden;rotatable=0;points=[[0,0.5],[1,0.5]];portConstraint=eastwest;" vertex="1" parent="gJbDm9_iiknffBqwd1vk-64">
          <mxGeometry y="81.16666666666667" width="602" height="27" as="geometry" />
        </mxCell>
        <mxCell id="gJbDm9_iiknffBqwd1vk-68" style="line;strokeWidth=1;fillColor=none;align=left;verticalAlign=middle;spacingTop=-1;spacingLeft=3;spacingRight=3;rotatable=0;labelPosition=right;points=[];portConstraint=eastwest;strokeColor=inherit;" vertex="1" parent="gJbDm9_iiknffBqwd1vk-64">
          <mxGeometry y="108.16666666666667" width="602" height="8" as="geometry" />
        </mxCell>
        <mxCell id="gJbDm9_iiknffBqwd1vk-69" value="+GetSchedule(startDate: Date, endDate: Date): List&lt;Shift&gt;" style="text;strokeColor=none;fillColor=none;align=left;verticalAlign=top;spacingLeft=4;spacingRight=4;overflow=hidden;rotatable=0;points=[[0,0.5],[1,0.5]];portConstraint=eastwest;" vertex="1" parent="gJbDm9_iiknffBqwd1vk-64">
          <mxGeometry y="116.16666666666667" width="602" height="27" as="geometry" />
        </mxCell>
        <mxCell id="gJbDm9_iiknffBqwd1vk-70" value="+RequestShiftChange(shiftID: int, newStartTime: Time, newEndTime: Time): void" style="text;strokeColor=none;fillColor=none;align=left;verticalAlign=top;spacingLeft=4;spacingRight=4;overflow=hidden;rotatable=0;points=[[0,0.5],[1,0.5]];portConstraint=eastwest;" vertex="1" parent="gJbDm9_iiknffBqwd1vk-64">
          <mxGeometry y="143.16666666666669" width="602" height="27" as="geometry" />
        </mxCell>
        <mxCell id="gJbDm9_iiknffBqwd1vk-71" value="Administrator" style="swimlane;fontStyle=1;align=center;verticalAlign=top;childLayout=stackLayout;horizontal=1;startSize=28.066668701171874;horizontalStack=0;resizeParent=1;resizeParentMax=0;resizeLast=0;collapsible=0;marginBottom=0;" vertex="1" parent="1">
          <mxGeometry x="1191" y="1176" width="398" height="148.06666870117186" as="geometry" />
        </mxCell>
        <mxCell id="gJbDm9_iiknffBqwd1vk-72" value="+ID: int" style="text;strokeColor=none;fillColor=none;align=left;verticalAlign=top;spacingLeft=4;spacingRight=4;overflow=hidden;rotatable=0;points=[[0,0.5],[1,0.5]];portConstraint=eastwest;" vertex="1" parent="gJbDm9_iiknffBqwd1vk-71">
          <mxGeometry y="28.066668701171874" width="398" height="28" as="geometry" />
        </mxCell>
        <mxCell id="gJbDm9_iiknffBqwd1vk-73" value="+Name: string" style="text;strokeColor=none;fillColor=none;align=left;verticalAlign=top;spacingLeft=4;spacingRight=4;overflow=hidden;rotatable=0;points=[[0,0.5],[1,0.5]];portConstraint=eastwest;" vertex="1" parent="gJbDm9_iiknffBqwd1vk-71">
          <mxGeometry y="56.06666870117188" width="398" height="28" as="geometry" />
        </mxCell>
        <mxCell id="gJbDm9_iiknffBqwd1vk-74" style="line;strokeWidth=1;fillColor=none;align=left;verticalAlign=middle;spacingTop=-1;spacingLeft=3;spacingRight=3;rotatable=0;labelPosition=right;points=[];portConstraint=eastwest;strokeColor=inherit;" vertex="1" parent="gJbDm9_iiknffBqwd1vk-71">
          <mxGeometry y="84.06666870117188" width="398" height="8" as="geometry" />
        </mxCell>
        <mxCell id="gJbDm9_iiknffBqwd1vk-75" value="+ApproveShiftChange(shiftID: int): void" style="text;strokeColor=none;fillColor=none;align=left;verticalAlign=top;spacingLeft=4;spacingRight=4;overflow=hidden;rotatable=0;points=[[0,0.5],[1,0.5]];portConstraint=eastwest;" vertex="1" parent="gJbDm9_iiknffBqwd1vk-71">
          <mxGeometry y="92.06666870117188" width="398" height="28" as="geometry" />
        </mxCell>
        <mxCell id="gJbDm9_iiknffBqwd1vk-76" value="+RejectShiftChange(shiftID: int, reason: string): void" style="text;strokeColor=none;fillColor=none;align=left;verticalAlign=top;spacingLeft=4;spacingRight=4;overflow=hidden;rotatable=0;points=[[0,0.5],[1,0.5]];portConstraint=eastwest;" vertex="1" parent="gJbDm9_iiknffBqwd1vk-71">
          <mxGeometry y="120.06666870117188" width="398" height="28" as="geometry" />
        </mxCell>
        <mxCell id="gJbDm9_iiknffBqwd1vk-77" value="SeniorAdministrator" style="swimlane;fontStyle=1;align=center;verticalAlign=top;childLayout=stackLayout;horizontal=1;startSize=27.166666666666668;horizontalStack=0;resizeParent=1;resizeParentMax=0;resizeLast=0;collapsible=0;marginBottom=0;" vertex="1" parent="1">
          <mxGeometry x="1214" y="287" width="418" height="170.16666666666669" as="geometry" />
        </mxCell>
        <mxCell id="gJbDm9_iiknffBqwd1vk-78" value="+ID: int" style="text;strokeColor=none;fillColor=none;align=left;verticalAlign=top;spacingLeft=4;spacingRight=4;overflow=hidden;rotatable=0;points=[[0,0.5],[1,0.5]];portConstraint=eastwest;" vertex="1" parent="gJbDm9_iiknffBqwd1vk-77">
          <mxGeometry y="27.166666666666668" width="418" height="27" as="geometry" />
        </mxCell>
        <mxCell id="gJbDm9_iiknffBqwd1vk-79" value="+Name: string" style="text;strokeColor=none;fillColor=none;align=left;verticalAlign=top;spacingLeft=4;spacingRight=4;overflow=hidden;rotatable=0;points=[[0,0.5],[1,0.5]];portConstraint=eastwest;" vertex="1" parent="gJbDm9_iiknffBqwd1vk-77">
          <mxGeometry y="54.16666666666667" width="418" height="27" as="geometry" />
        </mxCell>
        <mxCell id="gJbDm9_iiknffBqwd1vk-80" style="line;strokeWidth=1;fillColor=none;align=left;verticalAlign=middle;spacingTop=-1;spacingLeft=3;spacingRight=3;rotatable=0;labelPosition=right;points=[];portConstraint=eastwest;strokeColor=inherit;" vertex="1" parent="gJbDm9_iiknffBqwd1vk-77">
          <mxGeometry y="81.16666666666667" width="418" height="8" as="geometry" />
        </mxCell>
        <mxCell id="gJbDm9_iiknffBqwd1vk-81" value="+CreateSchedule(startDate: Date, endDate: Date): void" style="text;strokeColor=none;fillColor=none;align=left;verticalAlign=top;spacingLeft=4;spacingRight=4;overflow=hidden;rotatable=0;points=[[0,0.5],[1,0.5]];portConstraint=eastwest;" vertex="1" parent="gJbDm9_iiknffBqwd1vk-77">
          <mxGeometry y="89.16666666666667" width="418" height="27" as="geometry" />
        </mxCell>
        <mxCell id="gJbDm9_iiknffBqwd1vk-82" value="+PublishSchedule(): void" style="text;strokeColor=none;fillColor=none;align=left;verticalAlign=top;spacingLeft=4;spacingRight=4;overflow=hidden;rotatable=0;points=[[0,0.5],[1,0.5]];portConstraint=eastwest;" vertex="1" parent="gJbDm9_iiknffBqwd1vk-77">
          <mxGeometry y="116.16666666666667" width="418" height="27" as="geometry" />
        </mxCell>
        <mxCell id="gJbDm9_iiknffBqwd1vk-83" value="+ManageEmployees(): void" style="text;strokeColor=none;fillColor=none;align=left;verticalAlign=top;spacingLeft=4;spacingRight=4;overflow=hidden;rotatable=0;points=[[0,0.5],[1,0.5]];portConstraint=eastwest;" vertex="1" parent="gJbDm9_iiknffBqwd1vk-77">
          <mxGeometry y="143.16666666666669" width="418" height="27" as="geometry" />
        </mxCell>
        <mxCell id="gJbDm9_iiknffBqwd1vk-84" value="Client" style="swimlane;fontStyle=1;align=center;verticalAlign=top;childLayout=stackLayout;horizontal=1;startSize=28.066668701171874;horizontalStack=0;resizeParent=1;resizeParentMax=0;resizeLast=0;collapsible=0;marginBottom=0;" vertex="1" parent="1">
          <mxGeometry x="665" y="70" width="453" height="148.06666870117186" as="geometry" />
        </mxCell>
        <mxCell id="gJbDm9_iiknffBqwd1vk-85" value="+ID: int" style="text;strokeColor=none;fillColor=none;align=left;verticalAlign=top;spacingLeft=4;spacingRight=4;overflow=hidden;rotatable=0;points=[[0,0.5],[1,0.5]];portConstraint=eastwest;" vertex="1" parent="gJbDm9_iiknffBqwd1vk-84">
          <mxGeometry y="28.066668701171874" width="453" height="28" as="geometry" />
        </mxCell>
        <mxCell id="gJbDm9_iiknffBqwd1vk-86" value="+Name: string" style="text;strokeColor=none;fillColor=none;align=left;verticalAlign=top;spacingLeft=4;spacingRight=4;overflow=hidden;rotatable=0;points=[[0,0.5],[1,0.5]];portConstraint=eastwest;" vertex="1" parent="gJbDm9_iiknffBqwd1vk-84">
          <mxGeometry y="56.06666870117188" width="453" height="28" as="geometry" />
        </mxCell>
        <mxCell id="gJbDm9_iiknffBqwd1vk-87" style="line;strokeWidth=1;fillColor=none;align=left;verticalAlign=middle;spacingTop=-1;spacingLeft=3;spacingRight=3;rotatable=0;labelPosition=right;points=[];portConstraint=eastwest;strokeColor=inherit;" vertex="1" parent="gJbDm9_iiknffBqwd1vk-84">
          <mxGeometry y="84.06666870117188" width="453" height="8" as="geometry" />
        </mxCell>
        <mxCell id="gJbDm9_iiknffBqwd1vk-88" value="+ViewSchedule(startDate: Date, endDate: Date): List&lt;Shift&gt;" style="text;strokeColor=none;fillColor=none;align=left;verticalAlign=top;spacingLeft=4;spacingRight=4;overflow=hidden;rotatable=0;points=[[0,0.5],[1,0.5]];portConstraint=eastwest;" vertex="1" parent="gJbDm9_iiknffBqwd1vk-84">
          <mxGeometry y="92.06666870117188" width="453" height="28" as="geometry" />
        </mxCell>
        <mxCell id="gJbDm9_iiknffBqwd1vk-89" value="+BookLesson(instructorID: int, date: Date, time: Time): void" style="text;strokeColor=none;fillColor=none;align=left;verticalAlign=top;spacingLeft=4;spacingRight=4;overflow=hidden;rotatable=0;points=[[0,0.5],[1,0.5]];portConstraint=eastwest;" vertex="1" parent="gJbDm9_iiknffBqwd1vk-84">
          <mxGeometry y="120.06666870117188" width="453" height="28" as="geometry" />
        </mxCell>
        <mxCell id="gJbDm9_iiknffBqwd1vk-90" value="ScheduleService" style="swimlane;fontStyle=1;align=center;verticalAlign=top;childLayout=stackLayout;horizontal=1;startSize=25.076923076923077;horizontalStack=0;resizeParent=1;resizeParentMax=0;resizeLast=0;collapsible=0;marginBottom=0;" vertex="1" parent="1">
          <mxGeometry x="619" y="287" width="545" height="158.0769230769231" as="geometry" />
        </mxCell>
        <mxCell id="gJbDm9_iiknffBqwd1vk-91" style="line;strokeWidth=1;fillColor=none;align=left;verticalAlign=middle;spacingTop=-1;spacingLeft=3;spacingRight=3;rotatable=0;labelPosition=right;points=[];portConstraint=eastwest;strokeColor=inherit;" vertex="1" parent="gJbDm9_iiknffBqwd1vk-90">
          <mxGeometry y="25.076923076923077" width="545" height="8" as="geometry" />
        </mxCell>
        <mxCell id="gJbDm9_iiknffBqwd1vk-92" value="+GenerateSchedule(startDate: Date, endDate: Date): void" style="text;strokeColor=none;fillColor=none;align=left;verticalAlign=top;spacingLeft=4;spacingRight=4;overflow=hidden;rotatable=0;points=[[0,0.5],[1,0.5]];portConstraint=eastwest;" vertex="1" parent="gJbDm9_iiknffBqwd1vk-90">
          <mxGeometry y="33.07692307692308" width="545" height="25" as="geometry" />
        </mxCell>
        <mxCell id="gJbDm9_iiknffBqwd1vk-93" value="+UpdateShift(shiftID: int, newStartTime: Time, newEndTime: Time): void" style="text;strokeColor=none;fillColor=none;align=left;verticalAlign=top;spacingLeft=4;spacingRight=4;overflow=hidden;rotatable=0;points=[[0,0.5],[1,0.5]];portConstraint=eastwest;" vertex="1" parent="gJbDm9_iiknffBqwd1vk-90">
          <mxGeometry y="58.07692307692308" width="545" height="25" as="geometry" />
        </mxCell>
        <mxCell id="gJbDm9_iiknffBqwd1vk-94" value="+AddActivityToShift(shiftID: int, activity: Activity): void" style="text;strokeColor=none;fillColor=none;align=left;verticalAlign=top;spacingLeft=4;spacingRight=4;overflow=hidden;rotatable=0;points=[[0,0.5],[1,0.5]];portConstraint=eastwest;" vertex="1" parent="gJbDm9_iiknffBqwd1vk-90">
          <mxGeometry y="83.07692307692308" width="545" height="25" as="geometry" />
        </mxCell>
        <mxCell id="gJbDm9_iiknffBqwd1vk-95" value="+GetAvailableInstructors(date: Date, time: Time): List&lt;Instructor&gt;" style="text;strokeColor=none;fillColor=none;align=left;verticalAlign=top;spacingLeft=4;spacingRight=4;overflow=hidden;rotatable=0;points=[[0,0.5],[1,0.5]];portConstraint=eastwest;" vertex="1" parent="gJbDm9_iiknffBqwd1vk-90">
          <mxGeometry y="108.07692307692308" width="545" height="25" as="geometry" />
        </mxCell>
        <mxCell id="gJbDm9_iiknffBqwd1vk-96" value="+NotifyEmployees(): void" style="text;strokeColor=none;fillColor=none;align=left;verticalAlign=top;spacingLeft=4;spacingRight=4;overflow=hidden;rotatable=0;points=[[0,0.5],[1,0.5]];portConstraint=eastwest;" vertex="1" parent="gJbDm9_iiknffBqwd1vk-90">
          <mxGeometry y="133.0769230769231" width="545" height="25" as="geometry" />
        </mxCell>
        <mxCell id="gJbDm9_iiknffBqwd1vk-97" value="содержит" style="curved=1;startArrow=none;endArrow=open;endSize=12;exitX=0.49975802969141986;exitY=0.9986054169084237;entryX=0.9996076456705729;entryY=0.2885454916052531;rounded=0;" edge="1" parent="1" source="gJbDm9_iiknffBqwd1vk-35" target="gJbDm9_iiknffBqwd1vk-45">
          <mxGeometry relative="1" as="geometry">
            <Array as="points">
              <mxPoint x="1603" y="800" />
            </Array>
          </mxGeometry>
        </mxCell>
        <mxCell id="gJbDm9_iiknffBqwd1vk-98" value="1" style="edgeLabel;resizable=0;labelBackgroundColor=none;fontSize=12;align=right;verticalAlign=top;" vertex="1" parent="gJbDm9_iiknffBqwd1vk-97">
          <mxGeometry x="-1" relative="1" as="geometry" />
        </mxCell>
        <mxCell id="gJbDm9_iiknffBqwd1vk-99" value="many" style="edgeLabel;resizable=0;labelBackgroundColor=none;fontSize=12;align=left;verticalAlign=bottom;" vertex="1" parent="gJbDm9_iiknffBqwd1vk-97">
          <mxGeometry x="1" relative="1" as="geometry" />
        </mxCell>
        <mxCell id="gJbDm9_iiknffBqwd1vk-100" value="содержит" style="curved=1;startArrow=none;endArrow=open;endSize=12;exitX=0.4995937703450521;exitY=1.0013948863520283;entryX=0.7608872655010233;entryY=2.1192762586805554e-7;rounded=0;" edge="1" parent="1" source="gJbDm9_iiknffBqwd1vk-45" target="gJbDm9_iiknffBqwd1vk-55">
          <mxGeometry relative="1" as="geometry">
            <Array as="points">
              <mxPoint x="1036" y="1108" />
            </Array>
          </mxGeometry>
        </mxCell>
        <mxCell id="gJbDm9_iiknffBqwd1vk-101" value="1" style="edgeLabel;resizable=0;labelBackgroundColor=none;fontSize=12;align=right;verticalAlign=top;" vertex="1" parent="gJbDm9_iiknffBqwd1vk-100">
          <mxGeometry x="-1" relative="1" as="geometry" />
        </mxCell>
        <mxCell id="gJbDm9_iiknffBqwd1vk-102" value="many" style="edgeLabel;resizable=0;labelBackgroundColor=none;fontSize=12;align=left;verticalAlign=bottom;" vertex="1" parent="gJbDm9_iiknffBqwd1vk-100">
          <mxGeometry x="1" relative="1" as="geometry" />
        </mxCell>
        <mxCell id="gJbDm9_iiknffBqwd1vk-103" value="связан с" style="curved=1;startArrow=none;endArrow=open;endSize=12;exitX=-0.00042010498046875;exitY=0.6701374126769081;entryX=0.5002076411960132;entryY=-0.001949064912851791;rounded=0;" edge="1" parent="1" source="gJbDm9_iiknffBqwd1vk-45" target="gJbDm9_iiknffBqwd1vk-64">
          <mxGeometry relative="1" as="geometry">
            <Array as="points">
              <mxPoint x="321" y="1108" />
            </Array>
          </mxGeometry>
        </mxCell>
        <mxCell id="gJbDm9_iiknffBqwd1vk-104" value="1" style="edgeLabel;resizable=0;labelBackgroundColor=none;fontSize=12;align=right;verticalAlign=top;" vertex="1" parent="gJbDm9_iiknffBqwd1vk-103">
          <mxGeometry x="-1" relative="1" as="geometry" />
        </mxCell>
        <mxCell id="gJbDm9_iiknffBqwd1vk-105" value="1..*" style="edgeLabel;resizable=0;labelBackgroundColor=none;fontSize=12;align=left;verticalAlign=bottom;" vertex="1" parent="gJbDm9_iiknffBqwd1vk-103">
          <mxGeometry x="1" relative="1" as="geometry" />
        </mxCell>
        <mxCell id="gJbDm9_iiknffBqwd1vk-106" value="связан с" style="curved=1;startArrow=none;endArrow=open;endSize=12;exitX=0.9996076456705729;exitY=0.8424859269066745;entryX=0.5004482173440444;entryY=2.5774981524493245e-7;rounded=0;" edge="1" parent="1" source="gJbDm9_iiknffBqwd1vk-45" target="gJbDm9_iiknffBqwd1vk-71">
          <mxGeometry relative="1" as="geometry">
            <Array as="points">
              <mxPoint x="1390" y="1108" />
            </Array>
          </mxGeometry>
        </mxCell>
        <mxCell id="gJbDm9_iiknffBqwd1vk-107" value="1" style="edgeLabel;resizable=0;labelBackgroundColor=none;fontSize=12;align=right;verticalAlign=top;" vertex="1" parent="gJbDm9_iiknffBqwd1vk-106">
          <mxGeometry x="-1" relative="1" as="geometry" />
        </mxCell>
        <mxCell id="gJbDm9_iiknffBqwd1vk-108" value="1..*" style="edgeLabel;resizable=0;labelBackgroundColor=none;fontSize=12;align=left;verticalAlign=bottom;" vertex="1" parent="gJbDm9_iiknffBqwd1vk-106">
          <mxGeometry x="1" relative="1" as="geometry" />
        </mxCell>
        <mxCell id="gJbDm9_iiknffBqwd1vk-109" value="управляет" style="curved=1;startArrow=none;endArrow=open;endSize=12;exitX=0.8902851966257038;exitY=1.0000000669245135;entryX=0.5649744997019011;entryY=-0.00139464693588193;rounded=0;" edge="1" parent="1" source="gJbDm9_iiknffBqwd1vk-77" target="gJbDm9_iiknffBqwd1vk-35">
          <mxGeometry relative="1" as="geometry">
            <Array as="points">
              <mxPoint x="1651" y="492" />
            </Array>
          </mxGeometry>
        </mxCell>
        <mxCell id="gJbDm9_iiknffBqwd1vk-110" value="управляет" style="curved=1;startArrow=none;endArrow=open;endSize=12;exitX=0.0009002868068275269;exitY=0.9968884825831021;entryX=0.6906618756094582;entryY=0.0013948225077226072;rounded=0;" edge="1" parent="1" source="gJbDm9_iiknffBqwd1vk-77" target="gJbDm9_iiknffBqwd1vk-45">
          <mxGeometry relative="1" as="geometry">
            <Array as="points">
              <mxPoint x="1129" y="492" />
              <mxPoint x="1129" y="800" />
            </Array>
          </mxGeometry>
        </mxCell>
        <mxCell id="gJbDm9_iiknffBqwd1vk-111" value="взаимодействует" style="curved=1;startArrow=none;endArrow=open;endSize=12;exitX=0.5007042116413579;exitY=1.0022523209855363;entryX=0.500585335547771;entryY=6.692451343201754e-8;rounded=0;" edge="1" parent="1" source="gJbDm9_iiknffBqwd1vk-84" target="gJbDm9_iiknffBqwd1vk-90">
          <mxGeometry relative="1" as="geometry">
            <Array as="points" />
          </mxGeometry>
        </mxCell>
        <mxCell id="gJbDm9_iiknffBqwd1vk-112" value="управляет" style="curved=1;startArrow=none;endArrow=open;endSize=12;exitX=1.0006904952023008;exitY=0.9285216903366481;entryX=0.13938957850172243;entryY=-0.00139464693588193;rounded=0;" edge="1" parent="1" source="gJbDm9_iiknffBqwd1vk-90" target="gJbDm9_iiknffBqwd1vk-35">
          <mxGeometry relative="1" as="geometry">
            <Array as="points">
              <mxPoint x="1338" y="492" />
            </Array>
          </mxGeometry>
        </mxCell>
        <mxCell id="gJbDm9_iiknffBqwd1vk-113" value="управляет" style="curved=1;startArrow=none;endArrow=open;endSize=12;exitX=0.3417988233624441;exitY=1.0000000669245135;entryX=-0.00042010498046875;entryY=0.04736755069087959;rounded=0;" edge="1" parent="1" source="gJbDm9_iiknffBqwd1vk-90" target="gJbDm9_iiknffBqwd1vk-45">
          <mxGeometry relative="1" as="geometry">
            <Array as="points">
              <mxPoint x="771" y="492" />
              <mxPoint x="771" y="800" />
            </Array>
          </mxGeometry>
        </mxCell>
        <mxCell id="gJbDm9_iiknffBqwd1vk-114" value="управляет" style="curved=1;startArrow=none;endArrow=open;endSize=12;exitX=0.15811700997388917;exitY=1.0000000669245135;entryX=0.04729115410748732;entryY=2.1192762586805554e-7;rounded=0;" edge="1" parent="1" source="gJbDm9_iiknffBqwd1vk-90" target="gJbDm9_iiknffBqwd1vk-55">
          <mxGeometry relative="1" as="geometry">
            <Array as="points">
              <mxPoint x="630" y="492" />
              <mxPoint x="630" y="1108" />
            </Array>
          </mxGeometry>
        </mxCell>
      </root>
    </mxGraphModel>
  </diagram>
</mxfile>
